<svg xmlns="http://www.w3.org/2000/svg" width="24" height="24" viewBox="0 0 24 24"><path fill-rule="evenodd" d="M23.5 7s-.23-1.65-.95-2.38c-.91-.96-1.94-.97-2.41-1.03C16.77 3.35 12 3.35 12 3.35s-4.77 0-8.14.24c-.47.06-1.5.07-2.41 1.03C.73 5.35.5 7 .5 7S.25 8.94.25 10.88v2.24C.25 15.06.5 17 .5 17s.23 1.65.95 2.38c.91.96 2.11.93 2.64 1.03 1.92.18 7.91.24 7.91.24s4.77 0 8.14-.25c.47-.05 1.5-.06 2.41-1.02.72-.73.95-2.38.95-2.38s.25-1.94.25-3.88v-2.24C23.75 8.94 23.5 7 23.5 7ZM9.5 8.3v7.4l6.4-3.7Z"/></svg>
